<svg width="143" height="34" viewBox="0 0 310 74" xmlns="http://www.w3.org/2000/svg"
  xmlns:xlink="http://www.w3.org/1999/xlink">
  <defs>
    <path d="M.06.564V74h309.505V.564z"></path>
  </defs>
  <g fill="none" fill-rule="evenodd">
    <path fill="#fff"
      d="M265.891 33.469c-5.215 0-8.543 4.084-8.543 9.08 0 5.053 3.598 9.188 8.65 9.188 5.266 0 8.594-4.081 8.594-9.079 0-5.051-3.599-9.189-8.701-9.189zm0 23.912c-8.652 0-15.046-6.609-15.046-14.723 0-8.167 6.447-14.883 15.153-14.883 8.704 0 15.099 6.608 15.099 14.774 0 8.117-6.448 14.832-15.206 14.832zm-157.057-22.46c7.954 1.934 12.091 4.782 12.091 11.067 0 7.093-5.536 11.286-13.433 11.286-5.749 0-11.175-1.99-15.69-6.019l3.975-4.728c3.6 3.117 7.2 4.889 11.876 4.889 4.085 0 6.664-1.88 6.664-4.781 0-2.74-1.507-4.193-8.491-5.804-8.005-1.934-12.519-4.299-12.519-11.283 0-6.554 5.375-10.962 12.842-10.962 5.481 0 9.831 1.667 13.647 4.729l-3.547 4.996c-3.385-2.524-6.77-3.866-10.21-3.866-3.865 0-6.12 1.987-6.12 4.511 0 2.955 1.718 4.245 8.915 5.965"></path>
    <path fill="#fff"
      d="M137.844 57.542c-2.254 5.8-4.781 7.951-9.349 7.951-2.74 0-4.728-.643-6.716-1.719l2.203-4.837c1.181.644 2.471 1.075 3.815 1.075 1.826 0 2.954-.805 4.029-3.277l-11.82-28.371h6.933l8.058 21.064 7.359-21.064h6.771l-11.283 29.178m23.55-.268c-4.028 0-8.491-1.453-12.034-4.247l2.902-4.406c3.06 2.312 6.392 3.493 9.294 3.493 2.794 0 4.404-1.181 4.404-3.063v-.108c0-2.201-3.009-2.955-6.337-3.973-4.193-1.183-8.868-2.903-8.868-8.33v-.108c0-5.372 4.46-8.648 10.101-8.648 3.548 0 7.415 1.232 10.425 3.222l-2.58 4.621c-2.741-1.664-5.642-2.686-8.005-2.686-2.528 0-3.976 1.182-3.976 2.848v.105c0 2.044 3.061 2.903 6.392 3.979 4.14 1.286 8.813 3.17 8.813 8.272v.109c0 5.963-4.621 8.92-10.531 8.92m23.025-9.402c0 2.523 1.29 3.544 3.489 3.544 1.453 0 2.745-.321 4.032-.967v5.32c-1.61.912-3.438 1.451-5.857 1.451-4.78 0-8.167-2.096-8.167-8.329V33.954h-3.6v-5.59h3.6v-7.789h6.503v7.789h7.627v5.59h-7.627v13.918m30.29-7.31c-.431-4.19-2.905-7.467-7.201-7.467-3.978 0-6.773 3.062-7.359 7.467h14.56zm-6.342 11.498c3.171 0 5.428-1.181 7.684-3.383l3.813 3.383c-2.683 3.224-6.392 5.321-11.605 5.321-8.223 0-14.562-5.965-14.562-14.777 0-8.167 5.753-14.829 13.864-14.829 9.027 0 13.59 7.092 13.59 15.315 0 .589-.047 1.129-.105 1.771h-20.847c.754 4.621 3.978 7.199 8.168 7.199zm30.017 5.321c-8.434 0-14.667-6.609-14.667-14.723 0-8.115 6.233-14.883 14.721-14.883 5.374 0 8.705 1.987 11.339 4.889l-4.03 4.354c-1.988-2.097-4.084-3.549-7.363-3.549-4.727 0-8.165 4.084-8.165 9.08 0 5.107 3.491 9.188 8.49 9.188 3.061 0 5.318-1.449 7.361-3.545l3.923 3.868c-2.796 3.117-6.072 5.321-11.609 5.321"></path>
    <mask fill="#fff">
      <use xlink:href="#a"></use>
    </mask>
    <path fill="#fff"
      d="M290.603 56.735h-6.504V28.364h6.504v4.408c1.823-2.688 4.456-4.997 8.861-4.997 6.394 0 10.101 4.299 10.101 10.907v18.053h-6.502V40.616c0-4.405-2.201-6.93-6.069-6.93-3.762 0-6.391 2.631-6.391 7.038v16.011"
      mask="url(#b)"></path>
    <path
      d="M53.567 29.265c.566 7.441-4.91 13.725-12.421 14.12-3.151.164-6.166-.737-8.68-2.383a65.087 65.087 0 0 0-6.946 6.739 61.218 61.218 0 0 0-7.223 10.149 58.615 58.615 0 0 0-3.946 8.497c6.698 5.153 15.192 8.039 24.291 7.562 20.251-1.061 35.807-18.338 34.746-38.587a36.845 36.845 0 0 0-1.687-9.261 58.824 58.824 0 0 0-5.355.348 62.5 62.5 0 0 0-11.019 2.252c-.588.177-1.175.369-1.76.564"
      fill="#A01E26" mask="url(#b)"></path>
    <path
      d="M12.324 64.715a86.696 86.696 0 0 1 2.63-8.371 83.301 83.301 0 0 1 5.6-12.096 75.044 75.044 0 0 1 6.434-9.695 14.233 14.233 0 0 1-1.129-4.243c-.802-7.625 4.745-14.125 12.39-14.526 2.795-.147 5.483.546 7.809 1.854a59.607 59.607 0 0 1 3.916-2.122 59.639 59.639 0 0 1 12.368-4.528C55.263 4.094 45.446.057 34.798.615 14.55 1.676-1.01 18.953.051 39.206c.535 10.205 5.194 19.216 12.273 25.509"
      fill="#A01E26" mask="url(#b)"></path>
  </g>
</svg>